<mxfile host="app.diagrams.net" modified="2020-08-23T16:54:52.817Z" agent="5.0 (X11)" etag="Vcv0q-VsSpO4Fw_v68rh" version="13.6.4" type="github">
  <diagram id="iOvmld8MMDye9ALz8odJ" name="Page-1">
    <mxGraphModel dx="433" dy="422" grid="1" gridSize="10" guides="1" tooltips="1" connect="1" arrows="1" fold="1" page="1" pageScale="1" pageWidth="850" pageHeight="1100" math="0" shadow="0">
      <root>
        <mxCell id="0" />
        <mxCell id="1" parent="0" />
        <mxCell id="Fb1w56h0Uh3I9aH5ZNQk-20" value="" style="rounded=0;whiteSpace=wrap;html=1;fontSize=6;" parent="1" vertex="1">
          <mxGeometry x="90" y="300" width="660" height="475" as="geometry" />
        </mxCell>
        <mxCell id="Fb1w56h0Uh3I9aH5ZNQk-17" style="edgeStyle=orthogonalEdgeStyle;rounded=0;orthogonalLoop=1;jettySize=auto;html=1;entryX=0.5;entryY=0;entryDx=0;entryDy=0;fontSize=6;" parent="1" source="Fb1w56h0Uh3I9aH5ZNQk-1" target="Fb1w56h0Uh3I9aH5ZNQk-16" edge="1">
          <mxGeometry relative="1" as="geometry" />
        </mxCell>
        <mxCell id="Fb1w56h0Uh3I9aH5ZNQk-1" value="" style="rounded=0;whiteSpace=wrap;html=1;" parent="1" vertex="1">
          <mxGeometry x="325" y="443" width="200" height="215" as="geometry" />
        </mxCell>
        <mxCell id="Fb1w56h0Uh3I9aH5ZNQk-3" value="&lt;h1&gt;World&lt;/h1&gt;&lt;div&gt;Contains all data (Resources, Components, Entities).&lt;/div&gt;&lt;div&gt;Systems interact with it&lt;br&gt;&lt;/div&gt;" style="text;html=1;strokeColor=none;fillColor=none;spacing=5;spacingTop=-20;whiteSpace=wrap;overflow=hidden;rounded=0;" parent="1" vertex="1">
          <mxGeometry x="330" y="310" width="190" height="120" as="geometry" />
        </mxCell>
        <mxCell id="Fb1w56h0Uh3I9aH5ZNQk-4" value="" style="rounded=0;whiteSpace=wrap;html=1;" parent="1" vertex="1">
          <mxGeometry x="525" y="443" width="100" height="215" as="geometry" />
        </mxCell>
        <mxCell id="Fb1w56h0Uh3I9aH5ZNQk-5" value="&lt;b&gt;&lt;u&gt;Built in&lt;br&gt;&lt;/u&gt;&lt;/b&gt;" style="text;html=1;strokeColor=none;fillColor=none;align=center;verticalAlign=middle;whiteSpace=wrap;rounded=0;" parent="1" vertex="1">
          <mxGeometry x="525" y="443" width="100" height="20" as="geometry" />
        </mxCell>
        <mxCell id="Fb1w56h0Uh3I9aH5ZNQk-15" style="edgeStyle=orthogonalEdgeStyle;rounded=0;orthogonalLoop=1;jettySize=auto;html=1;entryX=1;entryY=0.5;entryDx=0;entryDy=0;" parent="1" source="Fb1w56h0Uh3I9aH5ZNQk-8" target="Fb1w56h0Uh3I9aH5ZNQk-14" edge="1">
          <mxGeometry relative="1" as="geometry" />
        </mxCell>
        <mxCell id="Fb1w56h0Uh3I9aH5ZNQk-8" value="" style="rounded=0;whiteSpace=wrap;html=1;" parent="1" vertex="1">
          <mxGeometry x="225" y="443" width="100" height="215" as="geometry" />
        </mxCell>
        <mxCell id="Fb1w56h0Uh3I9aH5ZNQk-14" value="&lt;font style=&quot;font-size: 6px&quot;&gt;Accessed With Read/Write and ReadExpect/WriteExpect&lt;/font&gt;" style="text;html=1;strokeColor=none;fillColor=none;align=center;verticalAlign=middle;whiteSpace=wrap;rounded=0;labelPosition=center;verticalLabelPosition=middle;fontSize=6;" parent="1" vertex="1">
          <mxGeometry x="120" y="540.25" width="70" height="20.5" as="geometry" />
        </mxCell>
        <mxCell id="Fb1w56h0Uh3I9aH5ZNQk-16" value="&lt;font style=&quot;font-size: 6px&quot;&gt;Accessed With ReadStorage/WriteStorage&lt;br&gt;&lt;/font&gt;" style="text;html=1;strokeColor=none;fillColor=none;align=center;verticalAlign=middle;whiteSpace=wrap;rounded=0;labelPosition=center;verticalLabelPosition=middle;fontSize=6;" parent="1" vertex="1">
          <mxGeometry x="390" y="690" width="70" height="20.5" as="geometry" />
        </mxCell>
        <mxCell id="Fb1w56h0Uh3I9aH5ZNQk-18" value="&lt;h1&gt;Components&lt;/h1&gt;&lt;p&gt;Have a storage type implemented, these include: DenseVecStorage, VecStorage, FlaggedStorage&lt;/p&gt;&lt;p&gt;Must be iterated over to get elements.&lt;br&gt;&lt;/p&gt;" style="text;html=1;strokeColor=none;fillColor=none;spacing=5;spacingTop=-20;whiteSpace=wrap;overflow=hidden;rounded=0;fontSize=6;" parent="1" vertex="1">
          <mxGeometry x="325" y="450" width="190" height="40" as="geometry" />
        </mxCell>
        <mxCell id="Fb1w56h0Uh3I9aH5ZNQk-19" value="&lt;h1&gt;Resources&lt;/h1&gt;&lt;div&gt;Can be inserted directly into the world without Storage implemented.&lt;/div&gt;&lt;div&gt;No need to iterate as there is only one of each (at least there should only be one)&lt;br&gt;&lt;/div&gt;" style="text;html=1;strokeColor=none;fillColor=none;spacing=5;spacingTop=-20;whiteSpace=wrap;overflow=hidden;rounded=0;fontSize=6;" parent="1" vertex="1">
          <mxGeometry x="225" y="450" width="95" height="70" as="geometry" />
        </mxCell>
      </root>
    </mxGraphModel>
  </diagram>
</mxfile>
